<svg xmlns="http://www.w3.org/2000/svg" enable-background="new 0 0 64 64" viewBox="0 0 64 64" id="stock-marketing"><path d="M19.25,14.34c-1.59,0-2.91-1-3.15-2.38c-0.05-0.27,0.14-0.52,0.4-0.57c0.26-0.04,0.52,0.13,0.57,0.4
							c0.15,0.89,1.09,1.56,2.18,1.56c1.21,0,2.2-0.81,2.2-1.81c0-1.15-0.8-1.81-2.2-1.81c-0.99,0.03-1.81-0.23-2.37-0.77
							c-0.51-0.5-0.8-1.22-0.8-2.03c0-1.54,1.43-2.8,3.18-2.8c1.56,0,2.88,0.98,3.14,2.33c0.05,0.27-0.13,0.52-0.39,0.57
							c-0.25,0.05-0.52-0.13-0.57-0.39c-0.16-0.87-1.1-1.53-2.17-1.53c-1.21,0-2.2,0.81-2.2,1.81c0,0.38,0.09,0.92,0.5,1.32
							c0.37,0.36,0.93,0.52,1.66,0.5c0.01,0,0.02,0,0.03,0h0c1.94,0,3.19,1.1,3.19,2.8C22.43,13.08,21,14.34,19.25,14.34z"></path><path d="M19.25 15.71c-.27 0-.49-.22-.49-.49v-1.37c0-.27.22-.49.49-.49s.49.22.49.49v1.37C19.74 15.49 19.52 15.71 19.25 15.71zM19.25 5.12c-.27 0-.49-.22-.49-.49V3.25c0-.27.22-.49.49-.49s.49.22.49.49v1.37C19.74 4.9 19.52 5.12 19.25 5.12z"></path><path d="M19.24 18.47c-5.09 0-9.24-4.14-9.24-9.24S14.15 0 19.24 0s9.24 4.14 9.24 9.24S24.33 18.47 19.24 18.47zM19.24.98c-4.55 0-8.25 3.7-8.25 8.25s3.7 8.25 8.25 8.25 8.25-3.7 8.25-8.25S23.79.98 19.24.98zM22.83 60.54c-.08 0-.15-.02-.22-.05-.24-.12-.34-.42-.22-.66l2.23-4.44c.12-.24.42-.34.66-.22.24.12.34.42.22.66l-2.23 4.44C23.18 60.44 23 60.54 22.83 60.54zM41.17 60.54c-.18 0-.35-.1-.44-.27l-2.23-4.44c-.12-.24-.02-.54.22-.66.24-.12.54-.03.66.22l2.23 4.44c.12.24.02.54-.22.66C41.32 60.53 41.25 60.54 41.17 60.54z"></path><path d="M59.04,56.11H4.96c-1.61,0-2.93-1.31-2.93-2.93v-3.72c0-0.27,0.22-0.49,0.49-0.49h58.95c0.27,0,0.49,0.22,0.49,0.49
									v3.72C61.97,54.79,60.66,56.11,59.04,56.11z M3.02,49.96v3.22c0,1.07,0.87,1.94,1.94,1.94h54.09c1.07,0,1.94-0.87,1.94-1.94
									v-3.22H3.02z"></path><path d="M61.47 49.96c-.27 0-.49-.22-.49-.49V10.32c0-.99-.8-1.79-1.78-1.79h-8.83c-.27 0-.49-.22-.49-.49 0-.27.22-.49.49-.49h8.83c1.53 0 2.77 1.25 2.77 2.78v39.15C61.97 49.74 61.75 49.96 61.47 49.96zM40.96 8.53H27.9c-.27 0-.49-.22-.49-.49 0-.27.22-.49.49-.49h13.06c.27 0 .49.22.49.49C41.45 8.31 41.23 8.53 40.96 8.53zM2.52 49.96c-.27 0-.49-.22-.49-.49V10.32c0-1.53 1.24-2.78 2.77-2.78h5.78c.27 0 .49.22.49.49 0 .27-.22.49-.49.49H4.8c-.98 0-1.78.8-1.78 1.79v39.15C3.02 49.74 2.8 49.96 2.52 49.96z"></path><path d="M57.5,46.71H6.51c-0.56,0-1.02-0.45-1.02-1.01V11.8c0-0.56,0.45-1.01,1.01-1.01h4.24c0.27,0,0.49,0.22,0.49,0.49
									c0,0.27-0.22,0.49-0.49,0.49H6.5L6.48,45.7l51.02,0.02l0.03-33.92l-7.92-0.02c-0.27,0-0.49-0.22-0.49-0.49
									c0-0.27,0.22-0.49,0.49-0.49h7.88c0.56,0,1.02,0.45,1.02,1.01v33.9C58.51,46.25,58.06,46.71,57.5,46.71z"></path><path d="M44.21 11.78H27.74c-.27 0-.49-.22-.49-.49 0-.27.22-.49.49-.49h16.43c.27 0 .51.22.51.49C44.69 11.56 44.48 11.78 44.21 11.78zM44.17 64H19.83c-.39 0-.7-.31-.7-.7v-3.04c0-.39.31-.7.7-.7h24.33c.39 0 .7.31.7.7v3.04C44.87 63.69 44.55 64 44.17 64zM20.12 63.02h23.77v-2.47H20.12V63.02zM33.25 53.03h-2.49c-.27 0-.49-.22-.49-.49 0-.27.22-.49.49-.49h2.49c.27 0 .49.22.49.49C33.74 52.81 33.52 53.03 33.25 53.03zM22.46 40.7h-3.22c-.27 0-.49-.22-.49-.49V24.92c0-.27.22-.49.49-.49h3.22c.27 0 .49.22.49.49V40.2C22.95 40.48 22.73 40.7 22.46 40.7zM19.73 39.71h2.23v-14.3h-2.23V39.71zM29.83 40.7h-3.22c-.27 0-.49-.22-.49-.49V21.84c0-.27.22-.49.49-.49h3.22c.27 0 .49.22.49.49V40.2C30.32 40.48 30.1 40.7 29.83 40.7zM27.11 39.71h2.23V22.33h-2.23V39.71zM37.2 40.7h-3.22c-.27 0-.49-.22-.49-.49V23.63c0-.27.22-.49.49-.49h3.22c.27 0 .49.22.49.49V40.2C37.7 40.48 37.48 40.7 37.2 40.7zM34.48 39.71h2.23V24.13h-2.23V39.71zM44.58 40.7h-3.22c-.27 0-.49-.22-.49-.49V18.69c0-.27.22-.49.49-.49h3.22c.27 0 .49.22.49.49V40.2C45.07 40.48 44.85 40.7 44.58 40.7zM41.85 39.71h2.23V19.18h-2.23V39.71z"></path><path d="M20.85,22.33c-0.17,0-0.34-0.09-0.43-0.25c-0.14-0.24-0.06-0.54,0.18-0.67l7.37-4.26c0.13-0.07,0.28-0.09,0.42-0.03
				l7.06,2.67l8.36-8.85l0.73,0.66l-0.02,0.02l-8.58,9.09c-0.14,0.15-0.35,0.19-0.53,0.12l-7.15-2.71l-7.17,4.14
				C21.02,22.31,20.94,22.33,20.85,22.33z"></path><path d="M48.58,16.14c-0.13,0-0.25-0.05-0.35-0.14l-8.98-8.98c-0.13-0.13-0.17-0.31-0.13-0.48c0.05-0.17,0.19-0.3,0.36-0.34
					l11.74-2.76c0.17-0.04,0.34,0.01,0.46,0.13c0.12,0.12,0.17,0.29,0.13,0.46l-2.76,11.74c-0.04,0.17-0.17,0.31-0.34,0.36
					C48.67,16.14,48.62,16.14,48.58,16.14z M40.57,6.95l7.73,7.73l2.38-10.11L40.57,6.95z"></path></svg>